<svg width="280" height="199" viewBox="0 0 280 199" fill="none" xmlns="http://www.w3.org/2000/svg">
<mask id="path-1-inside-1_48_536" fill="white">
<path d="M279.82 59.7V99.5H269.832V109.45H259.844V119.4H249.856V129.35H209.903V89.55H199.915V99.5H189.927V109.45H179.939V119.4H169.951V129.35H159.963V139.3H149.975V149.25H139.987V159.2H129.998V169.15H120.01V179.1H110.022V189.05H100.034V199H90.046V189.05H80.0579V179.1H90.046V169.15H100.034V159.2H110.022V149.25H120.01V139.3H129.998V129.35H139.987V119.4H149.975V109.45H159.963V99.5H169.951V89.55H179.939V79.6H189.927V69.65H149.975V29.85H159.963V19.9H169.951V9.95H179.939V0H219.892V39.8H239.868V59.7"/>
</mask>
<path d="M279.82 99.5H284.82V104.5H279.82V99.5ZM269.832 99.5H264.832V94.5H269.832V99.5ZM269.832 109.45H274.832V114.45H269.832V109.45ZM259.844 109.45H254.844V104.45H259.844V109.45ZM259.844 119.4H264.844V124.4H259.844V119.4ZM249.856 119.4H244.856V114.4H249.856V119.4ZM249.856 129.35H254.856V134.35H249.856V129.35ZM209.903 129.35V134.35H204.903V129.35H209.903ZM209.903 89.55V84.55H214.903V89.55H209.903ZM199.915 89.55H194.915V84.55H199.915V89.55ZM199.915 99.5H204.915V104.5H199.915V99.5ZM189.927 99.5H184.927V94.5H189.927V99.5ZM189.927 109.45H194.927V114.45H189.927V109.45ZM179.939 109.45H174.939V104.45H179.939V109.45ZM179.939 119.4H184.939V124.4H179.939V119.4ZM169.951 119.4H164.951V114.4H169.951V119.4ZM169.951 129.35H174.951V134.35H169.951V129.35ZM159.963 129.35H154.963V124.35H159.963V129.35ZM159.963 139.3H164.963V144.3H159.963V139.3ZM149.975 139.3H144.975V134.3H149.975V139.3ZM149.975 149.25H154.975V154.25H149.975V149.25ZM139.987 149.25H134.987V144.25H139.987V149.25ZM139.987 159.2H144.987V164.2H139.987V159.2ZM129.998 159.2H124.998V154.2H129.998V159.2ZM129.998 169.15H134.998V174.15H129.998V169.15ZM120.01 169.15H115.01V164.15H120.01V169.15ZM120.01 179.1H125.01V184.1H120.01V179.1ZM110.022 179.1H105.022V174.1H110.022V179.1ZM110.022 189.05H115.022V194.05H110.022V189.05ZM100.034 189.05H95.0341V184.05H100.034V189.05ZM100.034 199H105.034V204H100.034V199ZM90.046 199V204H85.046V199H90.046ZM90.046 189.05V184.05H95.046V189.05H90.046ZM80.0579 189.05V194.05H75.0579V189.05H80.0579ZM80.0579 179.1H75.0579V174.1H80.0579V179.1ZM90.046 179.1H95.046V184.1H90.046V179.1ZM90.046 169.15H85.046V164.15H90.046V169.15ZM100.034 169.15H105.034V174.15H100.034V169.15ZM100.034 159.2H95.0341V154.2H100.034V159.2ZM110.022 159.2H115.022V164.2H110.022V159.2ZM110.022 149.25H105.022V144.25H110.022V149.25ZM120.01 149.25H125.01V154.25H120.01V149.25ZM120.01 139.3H115.01V134.3H120.01V139.3ZM129.998 139.3H134.998V144.3H129.998V139.3ZM129.998 129.35H124.998V124.35H129.998V129.35ZM139.987 129.35H144.987V134.35H139.987V129.35ZM139.987 119.4H134.987V114.4H139.987V119.4ZM149.975 119.4H154.975V124.4H149.975V119.4ZM149.975 109.45H144.975V104.45H149.975V109.45ZM159.963 109.45H164.963V114.45H159.963V109.45ZM159.963 99.5H154.963V94.5H159.963V99.5ZM169.951 99.5H174.951V104.5H169.951V99.5ZM169.951 89.55H164.951V84.55H169.951V89.55ZM179.939 89.55H184.939V94.55H179.939V89.55ZM179.939 79.6H174.939V74.6H179.939V79.6ZM189.927 79.6H194.927V84.6H189.927V79.6ZM189.927 69.65V64.65H194.927V69.65H189.927ZM149.975 69.65V74.65H144.975V69.65H149.975ZM149.975 29.85H144.975V24.85H149.975V29.85ZM159.963 29.85H164.963V34.85H159.963V29.85ZM159.963 19.9H154.963V14.9H159.963V19.9ZM169.951 19.9H174.951V24.9H169.951V19.9ZM169.951 9.95H164.951V4.95H169.951V9.95ZM179.939 9.95H184.939V14.95H179.939V9.95ZM179.939 0H174.939V-5H179.939V0ZM219.892 0V-5H224.892V0H219.892ZM219.892 39.8V44.8H214.892V39.8H219.892ZM239.868 39.8V34.8H244.868V39.8H239.868ZM279.82 59.7H284.82V99.5H279.82H274.82V59.7H279.82ZM279.82 99.5V104.5H269.832V99.5V94.5H279.82V99.5ZM269.832 99.5H274.832V109.45H269.832H264.832V99.5H269.832ZM269.832 109.45V114.45H259.844V109.45V104.45H269.832V109.45ZM259.844 109.45H264.844V119.4H259.844H254.844V109.45H259.844ZM259.844 119.4V124.4H249.856V119.4V114.4H259.844V119.4ZM249.856 119.4H254.856V129.35H249.856H244.856V119.4H249.856ZM249.856 129.35V134.35H209.903V129.35V124.35H249.856V129.35ZM209.903 129.35H204.903V89.55H209.903H214.903V129.35H209.903ZM209.903 89.55V94.55H199.915V89.55V84.55H209.903V89.55ZM199.915 89.55H204.915V99.5H199.915H194.915V89.55H199.915ZM199.915 99.5V104.5H189.927V99.5V94.5H199.915V99.5ZM189.927 99.5H194.927V109.45H189.927H184.927V99.5H189.927ZM189.927 109.45V114.45H179.939V109.45V104.45H189.927V109.45ZM179.939 109.45H184.939V119.4H179.939H174.939V109.45H179.939ZM179.939 119.4V124.4H169.951V119.4V114.4H179.939V119.4ZM169.951 119.4H174.951V129.35H169.951H164.951V119.4H169.951ZM169.951 129.35V134.35H159.963V129.35V124.35H169.951V129.35ZM159.963 129.35H164.963V139.3H159.963H154.963V129.35H159.963ZM159.963 139.3V144.3H149.975V139.3V134.3H159.963V139.3ZM149.975 139.3H154.975V149.25H149.975H144.975V139.3H149.975ZM149.975 149.25V154.25H139.987V149.25V144.25H149.975V149.25ZM139.987 149.25H144.987V159.2H139.987H134.987V149.25H139.987ZM139.987 159.2V164.2H129.998V159.2V154.2H139.987V159.2ZM129.998 159.2H134.998V169.15H129.998H124.998V159.2H129.998ZM129.998 169.15V174.15H120.01V169.15V164.15H129.998V169.15ZM120.01 169.15H125.01V179.1H120.01H115.01V169.15H120.01ZM120.01 179.1V184.1H110.022V179.1V174.1H120.01V179.1ZM110.022 179.1H115.022V189.05H110.022H105.022V179.1H110.022ZM110.022 189.05V194.05H100.034V189.05V184.05H110.022V189.05ZM100.034 189.05H105.034V199H100.034H95.0341V189.05H100.034ZM100.034 199V204H90.046V199V194H100.034V199ZM90.046 199H85.046V189.05H90.046H95.046V199H90.046ZM90.046 189.05V194.05H80.0579V189.05V184.05H90.046V189.05ZM80.0579 189.05H75.0579V179.1H80.0579H85.0579V189.05H80.0579ZM80.0579 179.1V174.1H90.046V179.1V184.1H80.0579V179.1ZM90.046 179.1H85.046V169.15H90.046H95.046V179.1H90.046ZM90.046 169.15V164.15H100.034V169.15V174.15H90.046V169.15ZM100.034 169.15H95.0341V159.2H100.034H105.034V169.15H100.034ZM100.034 159.2V154.2H110.022V159.2V164.2H100.034V159.2ZM110.022 159.2H105.022V149.25H110.022H115.022V159.2H110.022ZM110.022 149.25V144.25H120.01V149.25V154.25H110.022V149.25ZM120.01 149.25H115.01V139.3H120.01H125.01V149.25H120.01ZM120.01 139.3V134.3H129.998V139.3V144.3H120.01V139.3ZM129.998 139.3H124.998V129.35H129.998H134.998V139.3H129.998ZM129.998 129.35V124.35H139.987V129.35V134.35H129.998V129.35ZM139.987 129.35H134.987V119.4H139.987H144.987V129.35H139.987ZM139.987 119.4V114.4H149.975V119.4V124.4H139.987V119.4ZM149.975 119.4H144.975V109.45H149.975H154.975V119.4H149.975ZM149.975 109.45V104.45H159.963V109.45V114.45H149.975V109.45ZM159.963 109.45H154.963V99.5H159.963H164.963V109.45H159.963ZM159.963 99.5V94.5H169.951V99.5V104.5H159.963V99.5ZM169.951 99.5H164.951V89.55H169.951H174.951V99.5H169.951ZM169.951 89.55V84.55H179.939V89.55V94.55H169.951V89.55ZM179.939 89.55H174.939V79.6H179.939H184.939V89.55H179.939ZM179.939 79.6V74.6H189.927V79.6V84.6H179.939V79.6ZM189.927 79.6H184.927V69.65H189.927H194.927V79.6H189.927ZM189.927 69.65V74.65H149.975V69.65V64.65H189.927V69.65ZM149.975 69.65H144.975V29.85H149.975H154.975V69.65H149.975ZM149.975 29.85V24.85H159.963V29.85V34.85H149.975V29.85ZM159.963 29.85H154.963V19.9H159.963H164.963V29.85H159.963ZM159.963 19.9V14.9H169.951V19.9V24.9H159.963V19.9ZM169.951 19.9H164.951V9.95H169.951H174.951V19.9H169.951ZM169.951 9.95V4.95H179.939V9.95V14.95H169.951V9.95ZM179.939 9.95H174.939V0H179.939H184.939V9.95H179.939ZM179.939 0V-5H219.892V0V5H179.939V0ZM219.892 0H224.892V39.8H219.892H214.892V0H219.892ZM219.892 39.8V34.8H239.868V39.8V44.8H219.892V39.8ZM239.868 39.8H244.868V59.7H239.868H234.868V39.8H239.868Z" fill="#206DE7" mask="url(#path-1-inside-1_48_536)"/>
<mask id="path-3-inside-2_48_536" fill="white">
<path d="M0 59.7L0 99.5H9.98812V109.45H19.9762L19.9762 119.4H29.9644V129.35H69.9169V89.55H79.905V99.5H89.8931V109.45H99.8812V119.4H109.869V129.35H119.857V139.3H129.846V149.25H139.834V159.2H149.822V169.15H159.81V179.1H169.798V189.05H179.786V199H189.774V189.05H199.762V179.1H189.774V169.15H179.786V159.2H169.798V149.25H159.81V139.3H149.822V129.35H139.834V119.4H129.846V109.45H119.857V99.5L109.869 99.5V89.55H99.8812L99.8812 79.6H89.8931V69.65H129.846V29.85H119.857V19.9H109.869V9.95H99.8812V0H59.9287L59.9287 39.8H39.9525V59.7"/>
</mask>
<path d="M0 99.5H-5V104.5H0L0 99.5ZM9.98812 99.5H14.9881L14.9881 94.5H9.98812L9.98812 99.5ZM9.98812 109.45H4.98812V114.45H9.98812V109.45ZM19.9762 109.45H24.9762V104.45H19.9762V109.45ZM19.9762 119.4H14.9762V124.4H19.9762V119.4ZM29.9644 119.4H34.9644V114.4H29.9644V119.4ZM29.9644 129.35H24.9644V134.35H29.9644V129.35ZM69.9169 129.35V134.35H74.9169V129.35H69.9169ZM69.9169 89.55V84.55H64.9169V89.55H69.9169ZM79.905 89.55H84.905V84.55H79.905V89.55ZM79.905 99.5H74.905V104.5H79.905V99.5ZM89.8931 99.5H94.8931V94.5H89.8931V99.5ZM89.8931 109.45H84.8931V114.45H89.8931V109.45ZM99.8812 109.45H104.881V104.45H99.8812V109.45ZM99.8812 119.4H94.8812V124.4H99.8812V119.4ZM109.869 119.4H114.869V114.4H109.869V119.4ZM109.869 129.35H104.869V134.35H109.869V129.35ZM119.857 129.35H124.857V124.35H119.857V129.35ZM119.857 139.3H114.857V144.3H119.857V139.3ZM129.846 139.3H134.846V134.3H129.846V139.3ZM129.846 149.25H124.846V154.25H129.846V149.25ZM139.834 149.25H144.834V144.25H139.834V149.25ZM139.834 159.2H134.834V164.2H139.834V159.2ZM149.822 159.2H154.822V154.2H149.822V159.2ZM149.822 169.15H144.822V174.15H149.822V169.15ZM159.81 169.15H164.81V164.15H159.81V169.15ZM159.81 179.1H154.81V184.1H159.81V179.1ZM169.798 179.1H174.798V174.1H169.798V179.1ZM169.798 189.05H164.798V194.05H169.798V189.05ZM179.786 189.05H184.786V184.05H179.786V189.05ZM179.786 199H174.786V204H179.786V199ZM189.774 199V204H194.774V199H189.774ZM189.774 189.05V184.05H184.774V189.05H189.774ZM199.762 189.05V194.05H204.762V189.05H199.762ZM199.762 179.1H204.762V174.1H199.762V179.1ZM189.774 179.1H184.774V184.1H189.774V179.1ZM189.774 169.15H194.774V164.15H189.774V169.15ZM179.786 169.15H174.786V174.15H179.786V169.15ZM179.786 159.2H184.786V154.2H179.786V159.2ZM169.798 159.2H164.798V164.2H169.798V159.2ZM169.798 149.25H174.798V144.25H169.798V149.25ZM159.81 149.25H154.81V154.25H159.81V149.25ZM159.81 139.3H164.81V134.3H159.81V139.3ZM149.822 139.3H144.822V144.3H149.822V139.3ZM149.822 129.35H154.822V124.35H149.822V129.35ZM139.834 129.35H134.834V134.35H139.834V129.35ZM139.834 119.4H144.834V114.4H139.834V119.4ZM129.846 119.4H124.846V124.4H129.846V119.4ZM129.846 109.45H134.846V104.45H129.846V109.45ZM119.857 109.45L114.857 109.45V114.45L119.857 114.45V109.45ZM119.857 99.5H124.857V94.5H119.857V99.5ZM109.869 99.5H104.869V104.5H109.869V99.5ZM109.869 89.55H114.869V84.55H109.869V89.55ZM99.8812 89.55H94.8812V94.55H99.8812V89.55ZM99.8812 79.6H104.881V74.6H99.8812V79.6ZM89.8931 79.6H84.8931L84.8931 84.6H89.8931L89.8931 79.6ZM89.8931 69.65V64.65H84.8931V69.65H89.8931ZM129.846 69.65V74.65H134.846V69.65H129.846ZM129.846 29.85H134.846V24.85H129.846V29.85ZM119.857 29.85H114.857V34.85H119.857V29.85ZM119.857 19.9H124.857V14.9H119.857V19.9ZM109.869 19.9H104.869V24.9H109.869V19.9ZM109.869 9.95H114.869V4.95H109.869V9.95ZM99.8812 9.95H94.8812V14.95H99.8812V9.95ZM99.8812 0H104.881V-5H99.8812V0ZM59.9287 0V-5H54.9287V0H59.9287ZM59.9287 39.8V44.8H64.9287V39.8H59.9287ZM39.9525 39.8V34.8H34.9525V39.8H39.9525ZM0 59.7H-5L-5 99.5H0H5L5 59.7H0ZM0 99.5L0 104.5H9.98812V99.5L9.98812 94.5H0L0 99.5ZM9.98812 99.5H4.98812L4.98812 109.45H9.98812H14.9881V99.5H9.98812ZM9.98812 109.45V114.45H19.9762L19.9762 109.45V104.45H9.98812V109.45ZM19.9762 109.45H14.9762V119.4H19.9762H24.9762L24.9762 109.45H19.9762ZM19.9762 119.4V124.4H29.9644V119.4V114.4H19.9762V119.4ZM29.9644 119.4H24.9644V129.35H29.9644H34.9644V119.4H29.9644ZM29.9644 129.35V134.35H69.9169V129.35V124.35H29.9644V129.35ZM69.9169 129.35H74.9169V89.55H69.9169H64.9169V129.35H69.9169ZM69.9169 89.55V94.55H79.905V89.55V84.55H69.9169V89.55ZM79.905 89.55H74.905V99.5H79.905H84.905V89.55H79.905ZM79.905 99.5V104.5H89.8931V99.5V94.5H79.905V99.5ZM89.8931 99.5H84.8931V109.45H89.8931H94.8931V99.5H89.8931ZM89.8931 109.45V114.45H99.8812V109.45V104.45H89.8931V109.45ZM99.8812 109.45H94.8812V119.4H99.8812H104.881V109.45H99.8812ZM99.8812 119.4V124.4H109.869V119.4V114.4H99.8812V119.4ZM109.869 119.4H104.869V129.35H109.869H114.869V119.4H109.869ZM109.869 129.35V134.35H119.857V129.35V124.35L109.869 124.35V129.35ZM119.857 129.35H114.857V139.3H119.857H124.857V129.35H119.857ZM119.857 139.3V144.3H129.846V139.3V134.3H119.857V139.3ZM129.846 139.3H124.846V149.25H129.846H134.846V139.3H129.846ZM129.846 149.25V154.25H139.834V149.25V144.25H129.846V149.25ZM139.834 149.25H134.834V159.2H139.834H144.834V149.25H139.834ZM139.834 159.2V164.2H149.822V159.2V154.2H139.834V159.2ZM149.822 159.2H144.822V169.15H149.822H154.822V159.2H149.822ZM149.822 169.15V174.15H159.81V169.15V164.15H149.822V169.15ZM159.81 169.15H154.81V179.1H159.81H164.81V169.15H159.81ZM159.81 179.1V184.1H169.798V179.1V174.1H159.81V179.1ZM169.798 179.1H164.798V189.05H169.798H174.798V179.1H169.798ZM169.798 189.05V194.05H179.786V189.05V184.05H169.798V189.05ZM179.786 189.05H174.786V199H179.786H184.786V189.05H179.786ZM179.786 199V204H189.774V199V194H179.786V199ZM189.774 199H194.774V189.05H189.774H184.774V199H189.774ZM189.774 189.05V194.05H199.762V189.05V184.05H189.774V189.05ZM199.762 189.05H204.762V179.1H199.762H194.762V189.05H199.762ZM199.762 179.1V174.1H189.774V179.1V184.1H199.762V179.1ZM189.774 179.1H194.774V169.15H189.774H184.774V179.1H189.774ZM189.774 169.15V164.15H179.786V169.15V174.15H189.774V169.15ZM179.786 169.15H184.786V159.2H179.786H174.786V169.15H179.786ZM179.786 159.2V154.2H169.798V159.2V164.2H179.786V159.2ZM169.798 159.2H174.798V149.25H169.798H164.798V159.2H169.798ZM169.798 149.25V144.25H159.81V149.25V154.25H169.798V149.25ZM159.81 149.25H164.81V139.3H159.81H154.81V149.25H159.81ZM159.81 139.3V134.3H149.822V139.3V144.3H159.81V139.3ZM149.822 139.3H154.822V129.35H149.822H144.822V139.3H149.822ZM149.822 129.35V124.35H139.834V129.35V134.35H149.822V129.35ZM139.834 129.35H144.834V119.4H139.834H134.834V129.35H139.834ZM139.834 119.4V114.4H129.846V119.4V124.4H139.834V119.4ZM129.846 119.4H134.846V109.45H129.846H124.846V119.4H129.846ZM129.846 109.45V104.45H119.857V109.45V114.45H129.846V109.45ZM119.857 109.45H124.857V99.5H119.857L114.857 99.5V109.45L119.857 109.45ZM119.857 99.5V94.5L109.869 94.5V99.5V104.5L119.857 104.5V99.5ZM109.869 99.5H114.869V89.55H109.869H104.869V99.5H109.869ZM109.869 89.55V84.55H99.8812V89.55V94.55H109.869V89.55ZM99.8812 89.55H104.881L104.881 79.6H99.8812H94.8812L94.8812 89.55H99.8812ZM99.8812 79.6V74.6H89.8931V79.6L89.8931 84.6H99.8812L99.8812 79.6ZM89.8931 79.6H94.8931V69.65H89.8931H84.8931V79.6H89.8931ZM89.8931 69.65V74.65L129.846 74.65V69.65V64.65H89.8931V69.65ZM129.846 69.65H134.846V29.85H129.846H124.846V69.65H129.846ZM129.846 29.85V24.85H119.857V29.85V34.85H129.846V29.85ZM119.857 29.85H124.857V19.9H119.857H114.857V29.85H119.857ZM119.857 19.9V14.9H109.869V19.9V24.9H119.857V19.9ZM109.869 19.9H114.869V9.95H109.869H104.869V19.9H109.869ZM109.869 9.95V4.95H99.8812V9.95V14.95H109.869V9.95ZM99.8812 9.95H104.881V0H99.8812H94.8812V9.95H99.8812ZM99.8812 0V-5H59.9287V0V5H99.8812V0ZM59.9287 0H54.9287L54.9287 39.8H59.9287H64.9287V0H59.9287ZM59.9287 39.8V34.8H39.9525V39.8V44.8H59.9287V39.8ZM39.9525 39.8H34.9525V59.7H39.9525H44.9525V39.8H39.9525Z" fill="#206DE7" mask="url(#path-3-inside-2_48_536)"/>
</svg>
